REM DIRINDEX 1\5,1\2\6,1\2\7,1\3\8,1\3\9,1\4\10,1\4\11,1\4\12
REM DIRNAME cjc026,folder01,folder02,folder03,folder04,folder05,folder06,folder07,folder08,folder09,folder10,folder11
TITLE ""
FILE "EJE_DB3000_5th_4B_29.mp3" MP3
  TRACK 01 AUDIO
    TITLE "0:"
    INDEX 01 00:00:00
  TRACK 02 AUDIO
    TITLE "10:cjc026_09285"
    INDEX 01 00:00:08
  TRACK 03 AUDIO
    TITLE "0:"
    INDEX 01 00:01:43
  TRACK 04 AUDIO
    TITLE "11:cjc026_09286"
    INDEX 01 00:02:03
  TRACK 05 AUDIO
    TITLE "0:"
    INDEX 01 00:03:36
  TRACK 06 AUDIO
    TITLE "12:cjc026_09287"
    INDEX 01 00:03:74
  TRACK 07 AUDIO
    TITLE "0:"
    INDEX 01 00:05:32
  TRACK 08 AUDIO
    TITLE "10:cjc026_09288"
    INDEX 01 00:05:67
  TRACK 09 AUDIO
    TITLE "0:"
    INDEX 01 00:07:25
  TRACK 10 AUDIO
    TITLE "11:cjc026_09289"
    INDEX 01 00:07:60
  TRACK 11 AUDIO
    TITLE "0:"
    INDEX 01 00:09:02
  TRACK 12 AUDIO
    TITLE "12:cjc026_09290"
    INDEX 01 00:09:40
  TRACK 13 AUDIO
    TITLE "0:"
    INDEX 01 00:10:70
  TRACK 14 AUDIO
    TITLE "10:cjc026_09291"
    INDEX 01 00:11:33
  TRACK 15 AUDIO
    TITLE "0:"
    INDEX 01 00:12:63
  TRACK 16 AUDIO
    TITLE "11:cjc026_09292"
    INDEX 01 00:13:21
  TRACK 17 AUDIO
    TITLE "0:"
    INDEX 01 00:15:00
  TRACK 18 AUDIO
    TITLE "12:cjc026_09293"
    INDEX 01 00:15:33
  TRACK 19 AUDIO
    TITLE "0:"
    INDEX 01 00:16:63
  TRACK 20 AUDIO
    TITLE "10:cjc026_09294"
    INDEX 01 00:17:23
  TRACK 21 AUDIO
    TITLE "0:"
    INDEX 01 00:18:54
  TRACK 22 AUDIO
    TITLE "11:cjc026_09295"
    INDEX 01 00:19:16
  TRACK 23 AUDIO
    TITLE "0:"
    INDEX 01 00:20:41
  TRACK 24 AUDIO
    TITLE "12:cjc026_09296"
    INDEX 01 00:21:04
  TRACK 25 AUDIO
    TITLE "0:"
    INDEX 01 00:22:34
  TRACK 26 AUDIO
    TITLE "10:cjc026_09297"
    INDEX 01 00:22:72
  TRACK 27 AUDIO
    TITLE "0:"
    INDEX 01 00:24:17
  TRACK 28 AUDIO
    TITLE "11:cjc026_09298"
    INDEX 01 00:24:54
  TRACK 29 AUDIO
    TITLE "0:"
    INDEX 01 00:25:71
  TRACK 30 AUDIO
    TITLE "12:cjc026_09299"
    INDEX 01 00:26:31
  TRACK 31 AUDIO
    TITLE "0:"
    INDEX 01 00:27:51
  TRACK 32 AUDIO
    TITLE "10:cjc026_09300"
    INDEX 01 00:28:14
  TRACK 33 AUDIO
    TITLE "0:"
    INDEX 01 00:29:44
  TRACK 34 AUDIO
    TITLE "11:cjc026_09301"
    INDEX 01 00:30:09
  TRACK 35 AUDIO
    TITLE "0:"
    INDEX 01 00:31:42
  TRACK 36 AUDIO
    TITLE "12:cjc026_09302"
    INDEX 01 00:32:05
  TRACK 37 AUDIO
    TITLE "0:"
    INDEX 01 00:33:33
  TRACK 38 AUDIO
    TITLE "10:cjc026_09303"
    INDEX 01 00:33:71
  TRACK 39 AUDIO
    TITLE "0:"
    INDEX 01 00:35:26
  TRACK 40 AUDIO
    TITLE "11:cjc026_09304"
    INDEX 01 00:35:64
  TRACK 41 AUDIO
    TITLE "0:"
    INDEX 01 00:37:11
  TRACK 42 AUDIO
    TITLE "12:cjc026_09305"
    INDEX 01 00:37:46
  TRACK 43 AUDIO
    TITLE "0:"
    INDEX 01 00:39:01
  TRACK 44 AUDIO
    TITLE "10:cjc026_09306"
    INDEX 01 00:39:39
  TRACK 45 AUDIO
    TITLE "0:"
    INDEX 01 00:40:56
  TRACK 46 AUDIO
    TITLE "11:cjc026_09307"
    INDEX 01 00:41:19
  TRACK 47 AUDIO
    TITLE "0:"
    INDEX 01 00:42:36
  TRACK 48 AUDIO
    TITLE "12:cjc026_09308"
    INDEX 01 00:43:01
  TRACK 49 AUDIO
    TITLE "0:"
    INDEX 01 00:44:21
  TRACK 50 AUDIO
    TITLE "10:cjc026_09309"
    INDEX 01 00:44:58
  TRACK 51 AUDIO
    TITLE "0:"
    INDEX 01 00:46:43
  TRACK 52 AUDIO
    TITLE "11:cjc026_09310"
    INDEX 01 00:47:06
  TRACK 53 AUDIO
    TITLE "0:"
    INDEX 01 00:48:47
  TRACK 54 AUDIO
    TITLE "12:cjc026_09311"
    INDEX 01 00:49:07
  TRACK 55 AUDIO
    TITLE "0:"
    INDEX 01 00:50:67
  TRACK 56 AUDIO
    TITLE "10:cjc026_09312"
    INDEX 01 00:51:30
  TRACK 57 AUDIO
    TITLE "0:"
    INDEX 01 00:52:63
  TRACK 58 AUDIO
    TITLE "11:cjc026_09313"
    INDEX 01 00:53:26
  TRACK 59 AUDIO
    TITLE "0:"
    INDEX 01 00:54:62
  TRACK 60 AUDIO
    TITLE "12:cjc026_09314"
    INDEX 01 00:55:22
  TRACK 61 AUDIO
    TITLE "0:"
    INDEX 01 00:56:52
  TRACK 62 AUDIO
    TITLE "10:cjc026_09315"
    INDEX 01 00:57:18
  TRACK 63 AUDIO
    TITLE "0:"
    INDEX 01 00:58:59
  TRACK 64 AUDIO
    TITLE "11:cjc026_09316"
    INDEX 01 00:59:21
  TRACK 65 AUDIO
    TITLE "0:"
    INDEX 01 01:01:04
  TRACK 66 AUDIO
    TITLE "12:cjc026_09317"
    INDEX 01 01:01:39
  TRACK 67 AUDIO
    TITLE "0:"
    INDEX 01 01:03:05
  TRACK 68 AUDIO
    TITLE "10:cjc026_09318"
    INDEX 01 01:03:45
  TRACK 69 AUDIO
    TITLE "0:"
    INDEX 01 01:05:01
  TRACK 70 AUDIO
    TITLE "11:cjc026_09319"
    INDEX 01 01:05:39
  TRACK 71 AUDIO
    TITLE "0:"
    INDEX 01 01:06:66
  TRACK 72 AUDIO
    TITLE "12:cjc026_09320"
    INDEX 01 01:07:29
  TRACK 73 AUDIO
    TITLE "0:"
    INDEX 01 01:08:59
  TRACK 74 AUDIO
    TITLE "10:cjc026_09321"
    INDEX 01 01:09:22
  TRACK 75 AUDIO
    TITLE "0:"
    INDEX 01 01:10:66
  TRACK 76 AUDIO
    TITLE "11:cjc026_09322"
    INDEX 01 01:11:31
  TRACK 77 AUDIO
    TITLE "0:"
    INDEX 01 01:13:19
  TRACK 78 AUDIO
    TITLE "12:cjc026_09323"
    INDEX 01 01:13:57
  TRACK 79 AUDIO
    TITLE "0:"
    INDEX 01 01:15:26
